<svg width="20" height="24" viewBox="0 0 20 24" fill="none" xmlns="http://www.w3.org/2000/svg">
<path d="M0.5 10.2857C0.5 17.92 7.625 24 10 24C12.375 24 19.5 17.92 19.5 10.2857C19.5 2.65143 14.75 0 10 0C5.25 0 0.5 2.4 0.5 10.2857Z" fill="#F06292"/>
<path d="M11.6665 12.8574C11.6665 14.146 10.6219 15.1906 9.33325 15.1906C8.04463 15.1906 7 14.146 7 12.8574C7 11.5687 8.04463 10.5241 9.33325 10.5241C10.6219 10.5241 11.6665 11.5687 11.6665 12.8574Z" fill="white"/>
<path fill-rule="evenodd" clip-rule="evenodd" d="M11.6665 8.91187L12.3114 9.23431C12.8877 9.52246 13.5884 9.28887 13.8766 8.71258C14.1647 8.13629 13.9311 7.43554 13.3548 7.14739L11.3592 6.1496C10.4284 5.68419 9.33322 6.36106 9.33322 7.40176V12.8573C9.33322 13.5017 9.85554 14.024 10.4998 14.024C11.1442 14.024 11.6665 13.5017 11.6665 12.8573V8.91187Z" fill="white"/>
</svg>
