<svg viewBox="0 0 24 24" fill="none" xmlns="http://www.w3.org/2000/svg">
<rect x="3" y="3" width="18" height="18" rx="2" fill="white"/>
<path fill-rule="evenodd" clip-rule="evenodd" d="M20.016 3.27691C19.7182 3.10097 19.3709 3 19 3H12.7071L16.5 6.7929L20.016 3.27691ZM11.2929 3H5C3.89543 3 3 3.89543 3 5V13.2929L6.50001 16.7929L15.7929 7.50001L11.2929 3ZM3 14.7071V19C3 19.3709 3.10097 19.7182 3.27691 20.016L5.7929 17.5L3 14.7071ZM3.98403 20.7231C4.28178 20.899 4.6291 21 5 21H9.29289L6.50001 18.2071L3.98403 20.7231ZM10.7071 21H19C20.1046 21 21 20.1046 21 19V12.7071L16.5 8.20711L7.20711 17.5L10.7071 21ZM21 11.2929V5C21 4.6291 20.899 4.28178 20.7231 3.98403L17.2071 7.50001L21 11.2929Z" fill="#F2EBD9"/>
<path fill-rule="evenodd" clip-rule="evenodd" d="M5 3H11.2929L15.7929 7.50001L6.50001 16.7929L3 13.2929V5C3 3.89543 3.89543 3 5 3Z" fill="#A8BA6E"/>
<path d="M11.6707 17.8293L11.9293 17.5707C11.9683 17.5317 12.0317 17.5317 12.0707 17.5707L12.3293 17.8293C12.3923 17.8923 12.3477 18 12.2586 18H11.7414C11.6523 18 11.6077 17.8923 11.6707 17.8293Z" fill="#FF6F6F"/>
<path d="M7 10.4135C7 14.4316 10.75 17.6316 12 17.6316C13.25 17.6316 17 14.4316 17 10.4135C17 6.39549 14.5 5 12 5C9.5 5 7 6.26316 7 10.4135Z" fill="#F06292"/>
<path d="M13.0816 10.8265C13.0647 10.8265 13.051 10.8128 13.051 10.7959V10.7959C13.0544 10.4711 13.0884 10.2126 13.1531 10.0204C13.2177 9.82823 13.3095 9.67262 13.4286 9.55357C13.5476 9.43452 13.6905 9.32483 13.8571 9.22449C13.9575 9.16326 14.0476 9.09099 14.1276 9.00765C14.2075 8.92262 14.2704 8.82483 14.3163 8.71429C14.3639 8.60374 14.3878 8.48129 14.3878 8.34694C14.3878 8.18027 14.3486 8.03571 14.2704 7.91327C14.1922 7.79082 14.0876 7.69643 13.9566 7.6301C13.8257 7.56378 13.6803 7.53061 13.5204 7.53061C13.381 7.53061 13.2466 7.55952 13.1173 7.61735C12.9881 7.67517 12.8801 7.76616 12.7934 7.89031C12.7544 7.94602 12.7229 8.00945 12.6987 8.08058C12.6438 8.24206 12.5104 8.37755 12.3399 8.37755V8.37755C12.1548 8.37755 12.0028 8.22112 12.0479 8.04165C12.0856 7.89174 12.1444 7.75626 12.2245 7.6352C12.3622 7.42942 12.5434 7.27211 12.7679 7.16327C12.994 7.05442 13.2449 7 13.5204 7C13.8197 7 14.0799 7.05952 14.301 7.17857C14.5238 7.29762 14.6956 7.46088 14.8163 7.66837C14.9388 7.87585 15 8.11224 15 8.37755C15 8.56463 14.9711 8.73384 14.9133 8.8852C14.8571 9.03656 14.7755 9.17177 14.6684 9.29082C14.5629 9.40986 14.4354 9.51531 14.2857 9.60714C14.1361 9.70068 14.0162 9.79932 13.926 9.90306C13.8359 10.0051 13.7704 10.1267 13.7296 10.2679C13.6888 10.409 13.6667 10.585 13.6633 10.7959V10.7959C13.6633 10.8128 13.6496 10.8265 13.6327 10.8265H13.0816ZM13.3776 12.3367C13.2517 12.3367 13.1437 12.2917 13.0536 12.2015C12.9634 12.1114 12.9184 12.0034 12.9184 11.8776C12.9184 11.7517 12.9634 11.6437 13.0536 11.5536C13.1437 11.4634 13.2517 11.4184 13.3776 11.4184C13.5034 11.4184 13.6114 11.4634 13.7015 11.5536C13.7917 11.6437 13.8367 11.7517 13.8367 11.8776C13.8367 11.9609 13.8155 12.0374 13.773 12.1071C13.7321 12.1769 13.6769 12.233 13.6071 12.2755C13.5391 12.3163 13.4626 12.3367 13.3776 12.3367Z" fill="white"/>
</svg>
