<svg viewBox="0 0 24 24" fill="none" xmlns="http://www.w3.org/2000/svg">
<rect x="3" y="3" width="18" height="18" rx="2" fill="white"/>
<path fill-rule="evenodd" clip-rule="evenodd" d="M20.016 3.27691C19.7182 3.10097 19.3709 3 19 3H12.7071L16.5 6.7929L20.016 3.27691ZM11.2929 3H5C3.89543 3 3 3.89543 3 5V13.2929L6.50001 16.7929L15.7929 7.50001L11.2929 3ZM3 14.7071V19C3 19.3709 3.10097 19.7182 3.27691 20.016L5.7929 17.5L3 14.7071ZM3.98403 20.7231C4.28178 20.899 4.6291 21 5 21H9.29289L6.50001 18.2071L3.98403 20.7231ZM10.7071 21H19C20.1046 21 21 20.1046 21 19V12.7071L16.5 8.20711L7.20711 17.5L10.7071 21ZM21 11.2929V5C21 4.6291 20.899 4.28178 20.7231 3.98403L17.2071 7.50001L21 11.2929Z" fill="#F2EBD9"/>
<path fill-rule="evenodd" clip-rule="evenodd" d="M5 3H11.2929L15.7929 7.50001L6.50001 16.7929L3 13.2929V5C3 3.89543 3.89543 3 5 3Z" fill="#A8BA6E"/>
<path d="M11.6707 17.8293L11.9293 17.5707C11.9683 17.5317 12.0317 17.5317 12.0707 17.5707L12.3293 17.8293C12.3923 17.8923 12.3477 18 12.2586 18H11.7414C11.6523 18 11.6077 17.8923 11.6707 17.8293Z" fill="#FF6F6F"/>
<path d="M7 10.4135C7 14.4316 10.75 17.6316 12 17.6316C13.25 17.6316 17 14.4316 17 10.4135C17 6.39549 14.5 5 12 5C9.5 5 7 6.26316 7 10.4135Z" fill="#F06292"/>
<path d="M11.6422 12.602C11.6196 12.602 11.6014 12.5838 11.6014 12.5612V12.5612C11.6059 12.1281 11.6512 11.7834 11.7374 11.5272C11.8236 11.271 11.946 11.0635 12.1048 10.9048C12.2635 10.746 12.454 10.5998 12.6762 10.466C12.81 10.3844 12.9302 10.288 13.0367 10.1769C13.1433 10.0635 13.2272 9.93311 13.2884 9.78571C13.3519 9.63832 13.3837 9.47506 13.3837 9.29592C13.3837 9.0737 13.3315 8.88095 13.2272 8.71769C13.1229 8.55442 12.9834 8.42857 12.8088 8.34014C12.6342 8.2517 12.4404 8.20748 12.2272 8.20748C12.0413 8.20748 11.8621 8.24603 11.6898 8.32313C11.5175 8.40023 11.3735 8.52154 11.2578 8.68707C11.2059 8.76137 11.1638 8.84593 11.1316 8.94078C11.0583 9.15607 10.8806 9.33673 10.6531 9.33673V9.33673C10.4064 9.33673 10.2038 9.12817 10.2639 8.88886C10.3141 8.68899 10.3926 8.50835 10.4993 8.34694C10.683 8.07256 10.9245 7.86281 11.2238 7.71769C11.5254 7.57256 11.8599 7.5 12.2272 7.5C12.6263 7.5 12.9732 7.57937 13.268 7.7381C13.5651 7.89683 13.7941 8.11451 13.9551 8.39116C14.1184 8.6678 14.2 8.98299 14.2 9.33673C14.2 9.58617 14.1614 9.81179 14.0844 10.0136C14.0095 10.2154 13.9007 10.3957 13.7578 10.5544C13.6172 10.7132 13.4472 10.8537 13.2476 10.9762C13.0481 11.1009 12.8882 11.2324 12.768 11.3707C12.6478 11.5068 12.5605 11.6689 12.5061 11.8571C12.4517 12.0454 12.4222 12.28 12.4177 12.5612V12.5612C12.4177 12.5838 12.3994 12.602 12.3769 12.602H11.6422ZM12.0367 14.6156C11.8689 14.6156 11.7249 14.5556 11.6048 14.4354C11.4846 14.3152 11.4245 14.1712 11.4245 14.0034C11.4245 13.8356 11.4846 13.6916 11.6048 13.5714C11.7249 13.4512 11.8689 13.3912 12.0367 13.3912C12.2045 13.3912 12.3485 13.4512 12.4687 13.5714C12.5889 13.6916 12.649 13.8356 12.649 14.0034C12.649 14.1145 12.6206 14.2166 12.5639 14.3095C12.5095 14.4025 12.4358 14.4773 12.3429 14.534C12.2522 14.5884 12.1501 14.6156 12.0367 14.6156Z" fill="white"/>
</svg>
