<svg viewBox="0 0 130 18" fill="none" xmlns="http://www.w3.org/2000/svg">
<rect width="18" height="18" rx="4" fill="white"/>
<path fill-rule="evenodd" clip-rule="evenodd" d="M16.4528 0.840078C15.7755 0.313543 14.9244 0 14 0H9.70711L13.5 3.7929L16.4528 0.840078ZM8.29289 0H4C1.79086 0 0 1.79086 0 4V10.2929L3.50001 13.7929L12.7929 4.50001L8.29289 0ZM0 11.7071V14C0 14.9244 0.313543 15.7755 0.840077 16.4528L2.7929 14.5L0 11.7071ZM1.54719 17.1599C2.22453 17.6865 3.07565 18 4 18H6.29289L3.50001 15.2071L1.54719 17.1599ZM7.70711 18H14C16.2091 18 18 16.2091 18 14V9.70711L13.5 5.20711L4.20711 14.5L7.70711 18ZM18 8.29289V4C18 3.07565 17.6865 2.22453 17.1599 1.54719L14.2071 4.50001L18 8.29289Z" fill="#F2EBD9"/>
<path fill-rule="evenodd" clip-rule="evenodd" d="M4 0H8.29289L12.7929 4.50001L3.50001 13.7929L0 10.2929V4C0 1.79086 1.79086 0 4 0Z" fill="#A8BA6E"/>
<path d="M8.67071 14.8293L8.92929 14.5707C8.96834 14.5317 9.03166 14.5317 9.07071 14.5707L9.32929 14.8293C9.39229 14.8923 9.34767 15 9.25858 15H8.74142C8.65233 15 8.60771 14.8923 8.67071 14.8293Z" fill="#F06292"/>
<path d="M4 7.41353C4 11.4316 7.75 14.6316 9 14.6316C10.25 14.6316 14 11.4316 14 7.41353C14 3.39549 11.5 2 9 2C6.5 2 4 3.26316 4 7.41353Z" fill="#F06292"/>
<path d="M9.66657 8.91849C9.66657 9.65484 9.06964 10.2518 8.33328 10.2518C7.59693 10.2518 7 9.65484 7 8.91849C7 8.18214 7.59693 7.58521 8.33328 7.58521C9.06964 7.58521 9.66657 8.18214 9.66657 8.91849Z" fill="white"/>
<path fill-rule="evenodd" clip-rule="evenodd" d="M9.66657 6.66392L10.0351 6.84818C10.3644 7.01283 10.7648 6.87935 10.9295 6.55005C11.0941 6.22074 10.9606 5.82031 10.6313 5.65565L9.49101 5.08549C8.95911 4.81954 8.33328 5.20632 8.33328 5.801V8.91848C8.33328 9.28666 8.63175 9.58513 8.99992 9.58513C9.3681 9.58513 9.66657 9.28666 9.66657 8.91848V6.66392Z" fill="white"/>
<path d="M22.3477 5.46875H23.4434L26.2383 12.4238L29.0273 5.46875H30.1289L26.6602 14H25.8047L22.3477 5.46875ZM21.9902 5.46875H22.957L23.1152 10.6719V14H21.9902V5.46875ZM29.5137 5.46875H30.4805V14H29.3555V10.6719L29.5137 5.46875ZM36.1816 12.5352V7.66016H37.2715V14H36.2344L36.1816 12.5352ZM36.3867 11.1992L36.8379 11.1875C36.8379 11.6094 36.793 12 36.7031 12.3594C36.6172 12.7148 36.4766 13.0234 36.2812 13.2852C36.0859 13.5469 35.8301 13.752 35.5137 13.9004C35.1973 14.0449 34.8125 14.1172 34.3594 14.1172C34.0508 14.1172 33.7676 14.0723 33.5098 13.9824C33.2559 13.8926 33.0371 13.7539 32.8535 13.5664C32.6699 13.3789 32.5273 13.1348 32.4258 12.834C32.3281 12.5332 32.2793 12.1719 32.2793 11.75V7.66016H33.3633V11.7617C33.3633 12.0469 33.3945 12.2832 33.457 12.4707C33.5234 12.6543 33.6113 12.8008 33.7207 12.9102C33.834 13.0156 33.959 13.0898 34.0957 13.1328C34.2363 13.1758 34.3809 13.1973 34.5293 13.1973C34.9902 13.1973 35.3555 13.1094 35.625 12.9336C35.8945 12.7539 36.0879 12.5137 36.2051 12.2129C36.3262 11.9082 36.3867 11.5703 36.3867 11.1992ZM42.6152 12.3184C42.6152 12.1621 42.5801 12.0176 42.5098 11.8848C42.4434 11.748 42.3047 11.625 42.0938 11.5156C41.8867 11.4023 41.5742 11.3047 41.1562 11.2227C40.8047 11.1484 40.4863 11.0605 40.2012 10.959C39.9199 10.8574 39.6797 10.7344 39.4805 10.5898C39.2852 10.4453 39.1348 10.2754 39.0293 10.0801C38.9238 9.88477 38.8711 9.65625 38.8711 9.39453C38.8711 9.14453 38.9258 8.9082 39.0352 8.68555C39.1484 8.46289 39.3066 8.26562 39.5098 8.09375C39.7168 7.92188 39.9648 7.78711 40.2539 7.68945C40.543 7.5918 40.8652 7.54297 41.2207 7.54297C41.7285 7.54297 42.1621 7.63281 42.5215 7.8125C42.8809 7.99219 43.1562 8.23242 43.3477 8.5332C43.5391 8.83008 43.6348 9.16016 43.6348 9.52344H42.5508C42.5508 9.34766 42.498 9.17773 42.3926 9.01367C42.291 8.8457 42.1406 8.70703 41.9414 8.59766C41.7461 8.48828 41.5059 8.43359 41.2207 8.43359C40.9199 8.43359 40.6758 8.48047 40.4883 8.57422C40.3047 8.66406 40.1699 8.7793 40.084 8.91992C40.002 9.06055 39.9609 9.20898 39.9609 9.36523C39.9609 9.48242 39.9805 9.58789 40.0195 9.68164C40.0625 9.77148 40.1367 9.85547 40.2422 9.93359C40.3477 10.0078 40.4961 10.0781 40.6875 10.1445C40.8789 10.2109 41.123 10.2773 41.4199 10.3438C41.9395 10.4609 42.3672 10.6016 42.7031 10.7656C43.0391 10.9297 43.2891 11.1309 43.4531 11.3691C43.6172 11.6074 43.6992 11.8965 43.6992 12.2363C43.6992 12.5137 43.6406 12.7676 43.5234 12.998C43.4102 13.2285 43.2441 13.4277 43.0254 13.5957C42.8105 13.7598 42.5527 13.8887 42.252 13.9824C41.9551 14.0723 41.6211 14.1172 41.25 14.1172C40.6914 14.1172 40.2188 14.0176 39.832 13.8184C39.4453 13.6191 39.1523 13.3613 38.9531 13.0449C38.7539 12.7285 38.6543 12.3945 38.6543 12.043H39.7441C39.7598 12.3398 39.8457 12.5762 40.002 12.752C40.1582 12.9238 40.3496 13.0469 40.5762 13.1211C40.8027 13.1914 41.0273 13.2266 41.25 13.2266C41.5469 13.2266 41.7949 13.1875 41.9941 13.1094C42.1973 13.0312 42.3516 12.9238 42.457 12.7871C42.5625 12.6504 42.6152 12.4941 42.6152 12.3184ZM46.3008 7.66016V14H45.2109V7.66016H46.3008ZM45.1289 5.97852C45.1289 5.80273 45.1816 5.6543 45.2871 5.5332C45.3965 5.41211 45.5566 5.35156 45.7676 5.35156C45.9746 5.35156 46.1328 5.41211 46.2422 5.5332C46.3555 5.6543 46.4121 5.80273 46.4121 5.97852C46.4121 6.14648 46.3555 6.29102 46.2422 6.41211C46.1328 6.5293 45.9746 6.58789 45.7676 6.58789C45.5566 6.58789 45.3965 6.5293 45.2871 6.41211C45.1816 6.29102 45.1289 6.14648 45.1289 5.97852ZM50.5781 13.2266C50.8359 13.2266 51.0742 13.1738 51.293 13.0684C51.5117 12.9629 51.6914 12.8184 51.832 12.6348C51.9727 12.4473 52.0527 12.2344 52.0723 11.9961H53.1035C53.084 12.3711 52.957 12.7207 52.7227 13.0449C52.4922 13.3652 52.1895 13.625 51.8145 13.8242C51.4395 14.0195 51.0273 14.1172 50.5781 14.1172C50.1016 14.1172 49.6855 14.0332 49.3301 13.8652C48.9785 13.6973 48.6855 13.4668 48.4512 13.1738C48.2207 12.8809 48.0469 12.5449 47.9297 12.166C47.8164 11.7832 47.7598 11.3789 47.7598 10.9531V10.707C47.7598 10.2812 47.8164 9.87891 47.9297 9.5C48.0469 9.11719 48.2207 8.7793 48.4512 8.48633C48.6855 8.19336 48.9785 7.96289 49.3301 7.79492C49.6855 7.62695 50.1016 7.54297 50.5781 7.54297C51.0742 7.54297 51.5078 7.64453 51.8789 7.84766C52.25 8.04688 52.541 8.32031 52.752 8.66797C52.9668 9.01172 53.084 9.40234 53.1035 9.83984H52.0723C52.0527 9.57812 51.9785 9.3418 51.8496 9.13086C51.7246 8.91992 51.5527 8.75195 51.334 8.62695C51.1191 8.49805 50.8672 8.43359 50.5781 8.43359C50.2461 8.43359 49.9668 8.5 49.7402 8.63281C49.5176 8.76172 49.3398 8.9375 49.207 9.16016C49.0781 9.37891 48.9844 9.62305 48.9258 9.89258C48.8711 10.1582 48.8438 10.4297 48.8438 10.707V10.9531C48.8438 11.2305 48.8711 11.5039 48.9258 11.7734C48.9805 12.043 49.0723 12.2871 49.2012 12.5059C49.334 12.7246 49.5117 12.9004 49.7344 13.0332C49.9609 13.1621 50.2422 13.2266 50.5781 13.2266ZM58.4766 7.66016V14H57.3867V7.66016H58.4766ZM57.3047 5.97852C57.3047 5.80273 57.3574 5.6543 57.4629 5.5332C57.5723 5.41211 57.7324 5.35156 57.9434 5.35156C58.1504 5.35156 58.3086 5.41211 58.418 5.5332C58.5312 5.6543 58.5879 5.80273 58.5879 5.97852C58.5879 6.14648 58.5312 6.29102 58.418 6.41211C58.3086 6.5293 58.1504 6.58789 57.9434 6.58789C57.7324 6.58789 57.5723 6.5293 57.4629 6.41211C57.3574 6.29102 57.3047 6.14648 57.3047 5.97852ZM61.3008 9.01367V14H60.2168V7.66016H61.2422L61.3008 9.01367ZM61.043 10.5898L60.5918 10.5723C60.5957 10.1387 60.6602 9.73828 60.7852 9.37109C60.9102 9 61.0859 8.67773 61.3125 8.4043C61.5391 8.13086 61.8086 7.91992 62.1211 7.77148C62.4375 7.61914 62.7871 7.54297 63.1699 7.54297C63.4824 7.54297 63.7637 7.58594 64.0137 7.67188C64.2637 7.75391 64.4766 7.88672 64.6523 8.07031C64.832 8.25391 64.9688 8.49219 65.0625 8.78516C65.1562 9.07422 65.2031 9.42773 65.2031 9.8457V14H64.1133V9.83398C64.1133 9.50195 64.0645 9.23633 63.9668 9.03711C63.8691 8.83398 63.7266 8.6875 63.5391 8.59766C63.3516 8.50391 63.1211 8.45703 62.8477 8.45703C62.5781 8.45703 62.332 8.51367 62.1094 8.62695C61.8906 8.74023 61.7012 8.89648 61.541 9.0957C61.3848 9.29492 61.2617 9.52344 61.1719 9.78125C61.0859 10.0352 61.043 10.3047 61.043 10.5898ZM73.5645 12.916V9.65234C73.5645 9.40234 73.5137 9.18555 73.4121 9.00195C73.3145 8.81445 73.166 8.66992 72.9668 8.56836C72.7676 8.4668 72.5215 8.41602 72.2285 8.41602C71.9551 8.41602 71.7148 8.46289 71.5078 8.55664C71.3047 8.65039 71.1445 8.77344 71.0273 8.92578C70.9141 9.07812 70.8574 9.24219 70.8574 9.41797H69.7734C69.7734 9.19141 69.832 8.9668 69.9492 8.74414C70.0664 8.52148 70.2344 8.32031 70.4531 8.14062C70.6758 7.95703 70.9414 7.8125 71.25 7.70703C71.5625 7.59766 71.9102 7.54297 72.293 7.54297C72.7539 7.54297 73.1602 7.62109 73.5117 7.77734C73.8672 7.93359 74.1445 8.16992 74.3438 8.48633C74.5469 8.79883 74.6484 9.19141 74.6484 9.66406V12.6172C74.6484 12.8281 74.666 13.0527 74.7012 13.291C74.7402 13.5293 74.7969 13.7344 74.8711 13.9062V14H73.7402C73.6855 13.875 73.6426 13.709 73.6113 13.502C73.5801 13.291 73.5645 13.0957 73.5645 12.916ZM73.752 10.1562L73.7637 10.918H72.668C72.3594 10.918 72.084 10.9434 71.8418 10.9941C71.5996 11.041 71.3965 11.1133 71.2324 11.2109C71.0684 11.3086 70.9434 11.4316 70.8574 11.5801C70.7715 11.7246 70.7285 11.8945 70.7285 12.0898C70.7285 12.2891 70.7734 12.4707 70.8633 12.6348C70.9531 12.7988 71.0879 12.9297 71.2676 13.0273C71.4512 13.1211 71.6758 13.168 71.9414 13.168C72.2734 13.168 72.5664 13.0977 72.8203 12.957C73.0742 12.8164 73.2754 12.6445 73.4238 12.4414C73.5762 12.2383 73.6582 12.041 73.6699 11.8496L74.1328 12.3711C74.1055 12.5352 74.0312 12.7168 73.9102 12.916C73.7891 13.1152 73.627 13.3066 73.4238 13.4902C73.2246 13.6699 72.9863 13.8203 72.709 13.9414C72.4355 14.0586 72.127 14.1172 71.7832 14.1172C71.3535 14.1172 70.9766 14.0332 70.6523 13.8652C70.332 13.6973 70.082 13.4727 69.9023 13.1914C69.7266 12.9062 69.6387 12.5879 69.6387 12.2363C69.6387 11.8965 69.7051 11.5977 69.8379 11.3398C69.9707 11.0781 70.1621 10.8613 70.4121 10.6895C70.6621 10.5137 70.9629 10.3809 71.3145 10.291C71.666 10.2012 72.0586 10.1562 72.4922 10.1562H73.752ZM79.3242 5H80.4141V12.7695L80.3203 14H79.3242V5ZM84.6973 10.7773V10.9004C84.6973 11.3613 84.6426 11.7891 84.5332 12.1836C84.4238 12.5742 84.2637 12.9141 84.0527 13.2031C83.8418 13.4922 83.584 13.7168 83.2793 13.877C82.9746 14.0371 82.625 14.1172 82.2305 14.1172C81.8281 14.1172 81.4746 14.0488 81.1699 13.9121C80.8691 13.7715 80.6152 13.5703 80.4082 13.3086C80.2012 13.0469 80.0352 12.7305 79.9102 12.3594C79.7891 11.9883 79.7051 11.5703 79.6582 11.1055V10.5664C79.7051 10.0977 79.7891 9.67773 79.9102 9.30664C80.0352 8.93555 80.2012 8.61914 80.4082 8.35742C80.6152 8.0918 80.8691 7.89062 81.1699 7.75391C81.4707 7.61328 81.8203 7.54297 82.2188 7.54297C82.6172 7.54297 82.9707 7.62109 83.2793 7.77734C83.5879 7.92969 83.8457 8.14844 84.0527 8.43359C84.2637 8.71875 84.4238 9.06055 84.5332 9.45898C84.6426 9.85352 84.6973 10.293 84.6973 10.7773ZM83.6074 10.9004V10.7773C83.6074 10.4609 83.5781 10.1641 83.5195 9.88672C83.4609 9.60547 83.3672 9.35938 83.2383 9.14844C83.1094 8.93359 82.9395 8.76562 82.7285 8.64453C82.5176 8.51953 82.2578 8.45703 81.9492 8.45703C81.6758 8.45703 81.4375 8.50391 81.2344 8.59766C81.0352 8.69141 80.8652 8.81836 80.7246 8.97852C80.584 9.13477 80.4688 9.31445 80.3789 9.51758C80.293 9.7168 80.2285 9.92383 80.1855 10.1387V11.5508C80.248 11.8242 80.3496 12.0879 80.4902 12.3418C80.6348 12.5918 80.8262 12.7969 81.0645 12.957C81.3066 13.1172 81.6055 13.1973 81.9609 13.1973C82.2539 13.1973 82.5039 13.1387 82.7109 13.0215C82.9219 12.9004 83.0918 12.7344 83.2207 12.5234C83.3535 12.3125 83.4512 12.0684 83.5137 11.791C83.5762 11.5137 83.6074 11.2168 83.6074 10.9004ZM89.8066 12.916V9.65234C89.8066 9.40234 89.7559 9.18555 89.6543 9.00195C89.5566 8.81445 89.4082 8.66992 89.209 8.56836C89.0098 8.4668 88.7637 8.41602 88.4707 8.41602C88.1973 8.41602 87.957 8.46289 87.75 8.55664C87.5469 8.65039 87.3867 8.77344 87.2695 8.92578C87.1562 9.07812 87.0996 9.24219 87.0996 9.41797H86.0156C86.0156 9.19141 86.0742 8.9668 86.1914 8.74414C86.3086 8.52148 86.4766 8.32031 86.6953 8.14062C86.918 7.95703 87.1836 7.8125 87.4922 7.70703C87.8047 7.59766 88.1523 7.54297 88.5352 7.54297C88.9961 7.54297 89.4023 7.62109 89.7539 7.77734C90.1094 7.93359 90.3867 8.16992 90.5859 8.48633C90.7891 8.79883 90.8906 9.19141 90.8906 9.66406V12.6172C90.8906 12.8281 90.9082 13.0527 90.9434 13.291C90.9824 13.5293 91.0391 13.7344 91.1133 13.9062V14H89.9824C89.9277 13.875 89.8848 13.709 89.8535 13.502C89.8223 13.291 89.8066 13.0957 89.8066 12.916ZM89.9941 10.1562L90.0059 10.918H88.9102C88.6016 10.918 88.3262 10.9434 88.084 10.9941C87.8418 11.041 87.6387 11.1133 87.4746 11.2109C87.3105 11.3086 87.1855 11.4316 87.0996 11.5801C87.0137 11.7246 86.9707 11.8945 86.9707 12.0898C86.9707 12.2891 87.0156 12.4707 87.1055 12.6348C87.1953 12.7988 87.3301 12.9297 87.5098 13.0273C87.6934 13.1211 87.918 13.168 88.1836 13.168C88.5156 13.168 88.8086 13.0977 89.0625 12.957C89.3164 12.8164 89.5176 12.6445 89.666 12.4414C89.8184 12.2383 89.9004 12.041 89.9121 11.8496L90.375 12.3711C90.3477 12.5352 90.2734 12.7168 90.1523 12.916C90.0312 13.1152 89.8691 13.3066 89.666 13.4902C89.4668 13.6699 89.2285 13.8203 88.9512 13.9414C88.6777 14.0586 88.3691 14.1172 88.0254 14.1172C87.5957 14.1172 87.2188 14.0332 86.8945 13.8652C86.5742 13.6973 86.3242 13.4727 86.1445 13.1914C85.9688 12.9062 85.8809 12.5879 85.8809 12.2363C85.8809 11.8965 85.9473 11.5977 86.0801 11.3398C86.2129 11.0781 86.4043 10.8613 86.6543 10.6895C86.9043 10.5137 87.2051 10.3809 87.5566 10.291C87.9082 10.2012 88.3008 10.1562 88.7344 10.1562H89.9941ZM93.7734 5V14H92.6836V5H93.7734ZM96.6914 5V14H95.6016V5H96.6914ZM98.1445 10.9004V10.7656C98.1445 10.3086 98.2109 9.88477 98.3438 9.49414C98.4766 9.09961 98.668 8.75781 98.918 8.46875C99.168 8.17578 99.4707 7.94922 99.8262 7.78906C100.182 7.625 100.58 7.54297 101.021 7.54297C101.467 7.54297 101.867 7.625 102.223 7.78906C102.582 7.94922 102.887 8.17578 103.137 8.46875C103.391 8.75781 103.584 9.09961 103.717 9.49414C103.85 9.88477 103.916 10.3086 103.916 10.7656V10.9004C103.916 11.3574 103.85 11.7812 103.717 12.1719C103.584 12.5625 103.391 12.9043 103.137 13.1973C102.887 13.4863 102.584 13.7129 102.229 13.877C101.877 14.0371 101.479 14.1172 101.033 14.1172C100.588 14.1172 100.188 14.0371 99.832 13.877C99.4766 13.7129 99.1719 13.4863 98.918 13.1973C98.668 12.9043 98.4766 12.5625 98.3438 12.1719C98.2109 11.7812 98.1445 11.3574 98.1445 10.9004ZM99.2285 10.7656V10.9004C99.2285 11.2168 99.2656 11.5156 99.3398 11.7969C99.4141 12.0742 99.5254 12.3203 99.6738 12.5352C99.8262 12.75 100.016 12.9199 100.242 13.0449C100.469 13.166 100.732 13.2266 101.033 13.2266C101.33 13.2266 101.59 13.166 101.812 13.0449C102.039 12.9199 102.227 12.75 102.375 12.5352C102.523 12.3203 102.635 12.0742 102.709 11.7969C102.787 11.5156 102.826 11.2168 102.826 10.9004V10.7656C102.826 10.4531 102.787 10.1582 102.709 9.88086C102.635 9.59961 102.521 9.35156 102.369 9.13672C102.221 8.91797 102.033 8.74609 101.807 8.62109C101.584 8.49609 101.322 8.43359 101.021 8.43359C100.725 8.43359 100.463 8.49609 100.236 8.62109C100.014 8.74609 99.8262 8.91797 99.6738 9.13672C99.5254 9.35156 99.4141 9.59961 99.3398 9.88086C99.2656 10.1582 99.2285 10.4531 99.2285 10.7656ZM104.988 10.9004V10.7656C104.988 10.3086 105.055 9.88477 105.188 9.49414C105.32 9.09961 105.512 8.75781 105.762 8.46875C106.012 8.17578 106.314 7.94922 106.67 7.78906C107.025 7.625 107.424 7.54297 107.865 7.54297C108.311 7.54297 108.711 7.625 109.066 7.78906C109.426 7.94922 109.73 8.17578 109.98 8.46875C110.234 8.75781 110.428 9.09961 110.561 9.49414C110.693 9.88477 110.76 10.3086 110.76 10.7656V10.9004C110.76 11.3574 110.693 11.7812 110.561 12.1719C110.428 12.5625 110.234 12.9043 109.98 13.1973C109.73 13.4863 109.428 13.7129 109.072 13.877C108.721 14.0371 108.322 14.1172 107.877 14.1172C107.432 14.1172 107.031 14.0371 106.676 13.877C106.32 13.7129 106.016 13.4863 105.762 13.1973C105.512 12.9043 105.32 12.5625 105.188 12.1719C105.055 11.7812 104.988 11.3574 104.988 10.9004ZM106.072 10.7656V10.9004C106.072 11.2168 106.109 11.5156 106.184 11.7969C106.258 12.0742 106.369 12.3203 106.518 12.5352C106.67 12.75 106.859 12.9199 107.086 13.0449C107.312 13.166 107.576 13.2266 107.877 13.2266C108.174 13.2266 108.434 13.166 108.656 13.0449C108.883 12.9199 109.07 12.75 109.219 12.5352C109.367 12.3203 109.479 12.0742 109.553 11.7969C109.631 11.5156 109.67 11.2168 109.67 10.9004V10.7656C109.67 10.4531 109.631 10.1582 109.553 9.88086C109.479 9.59961 109.365 9.35156 109.213 9.13672C109.064 8.91797 108.877 8.74609 108.65 8.62109C108.428 8.49609 108.166 8.43359 107.865 8.43359C107.568 8.43359 107.307 8.49609 107.08 8.62109C106.857 8.74609 106.67 8.91797 106.518 9.13672C106.369 9.35156 106.258 9.59961 106.184 9.88086C106.109 10.1582 106.072 10.4531 106.072 10.7656ZM113.203 9.01367V14H112.119V7.66016H113.145L113.203 9.01367ZM112.945 10.5898L112.494 10.5723C112.498 10.1387 112.562 9.73828 112.688 9.37109C112.812 9 112.988 8.67773 113.215 8.4043C113.441 8.13086 113.711 7.91992 114.023 7.77148C114.34 7.61914 114.689 7.54297 115.072 7.54297C115.385 7.54297 115.666 7.58594 115.916 7.67188C116.166 7.75391 116.379 7.88672 116.555 8.07031C116.734 8.25391 116.871 8.49219 116.965 8.78516C117.059 9.07422 117.105 9.42773 117.105 9.8457V14H116.016V9.83398C116.016 9.50195 115.967 9.23633 115.869 9.03711C115.771 8.83398 115.629 8.6875 115.441 8.59766C115.254 8.50391 115.023 8.45703 114.75 8.45703C114.48 8.45703 114.234 8.51367 114.012 8.62695C113.793 8.74023 113.604 8.89648 113.443 9.0957C113.287 9.29492 113.164 9.52344 113.074 9.78125C112.988 10.0352 112.945 10.3047 112.945 10.5898Z" fill="#F06292"/>
</svg>
