<svg width="32" height="32" viewBox="0 0 18 18" fill="none" xmlns="http://www.w3.org/2000/svg">
<g clip-path="url(#clip0_35_349)">
<rect width="18" height="18" rx="4" fill="white"/>
<path fill-rule="evenodd" clip-rule="evenodd" d="M16.4528 0.840078C15.7755 0.313543 14.9244 0 14 0H9.70711L13.5 3.7929L16.4528 0.840078ZM8.29289 0H4C1.79086 0 0 1.79086 0 4V10.2929L3.50001 13.7929L12.7929 4.50001L8.29289 0ZM0 11.7071V14C0 14.9244 0.313543 15.7755 0.840078 16.4528L2.7929 14.5L0 11.7071ZM1.54719 17.1599C2.22453 17.6865 3.07565 18 4 18H6.29289L3.50001 15.2071L1.54719 17.1599ZM7.70711 18H14C16.2091 18 18 16.2091 18 14V9.70711L13.5 5.20711L4.20711 14.5L7.70711 18ZM18 8.29289V4C18 3.07565 17.6865 2.22453 17.1599 1.54719L14.2071 4.50001L18 8.29289Z" fill="#F2EBD9"/>
<path fill-rule="evenodd" clip-rule="evenodd" d="M4 0H8.29289L12.7929 4.50001L3.50001 13.7929L0 10.2929V4C0 1.79086 1.79086 0 4 0Z" fill="#A8BA6E"/>
<path d="M8.67071 14.8293L8.92929 14.5707C8.96834 14.5317 9.03166 14.5317 9.07071 14.5707L9.32929 14.8293C9.39229 14.8923 9.34767 15 9.25858 15H8.74142C8.65233 15 8.60771 14.8923 8.67071 14.8293Z" fill="#F06292"/>
<path d="M4 7.41353C4 11.4316 7.75 14.6316 9 14.6316C10.25 14.6316 14 11.4316 14 7.41353C14 3.39549 11.5 2 9 2C6.5 2 4 3.26316 4 7.41353Z" fill="#F06292"/>
<path d="M9.66657 8.91849C9.66657 9.65484 9.06964 10.2518 8.33328 10.2518C7.59693 10.2518 7 9.65484 7 8.91849C7 8.18214 7.59693 7.58521 8.33328 7.58521C9.06964 7.58521 9.66657 8.18214 9.66657 8.91849Z" fill="white"/>
<path fill-rule="evenodd" clip-rule="evenodd" d="M9.66657 6.66392L10.0351 6.84818C10.3644 7.01283 10.7648 6.87935 10.9295 6.55005C11.0941 6.22074 10.9606 5.82031 10.6313 5.65565L9.49101 5.08549C8.95911 4.81954 8.33328 5.20632 8.33328 5.801V8.91848C8.33328 9.28666 8.63175 9.58513 8.99992 9.58513C9.3681 9.58513 9.66657 9.28666 9.66657 8.91848V6.66392Z" fill="white"/>
</g>
<defs>
<clipPath id="clip0_35_349">
<rect width="18" height="18" fill="white"/>
</clipPath>
</defs>
</svg>
