<svg viewBox="0 0 18 18" fill="none" xmlns="http://www.w3.org/2000/svg">
<rect width="18" height="18" rx="2" fill="white"/>
<path fill-rule="evenodd" clip-rule="evenodd" d="M17.016 0.276915C16.7182 0.100967 16.3709 0 16 0H9.70711L13.5 3.7929L17.016 0.276915ZM8.29289 0H2C0.895431 0 0 0.89543 0 2V10.2929L3.50001 13.7929L12.7929 4.50001L8.29289 0ZM0 11.7071V16C0 16.3709 0.100967 16.7182 0.276915 17.016L2.7929 14.5L0 11.7071ZM0.984026 17.7231C1.28178 17.899 1.6291 18 2 18H6.29289L3.50001 15.2071L0.984026 17.7231ZM7.70711 18H16C17.1046 18 18 17.1046 18 16V9.70711L13.5 5.20711L4.20711 14.5L7.70711 18ZM18 8.29289V2C18 1.6291 17.899 1.28178 17.7231 0.984026L14.2071 4.50001L18 8.29289Z" fill="#F2EBD9"/>
<path fill-rule="evenodd" clip-rule="evenodd" d="M2 0H8.29289L12.7929 4.50001L3.50001 13.7929L0 10.2929V2C0 0.89543 0.895431 0 2 0Z" fill="#A8BA6E"/>
<path d="M8.67071 14.8293L8.92929 14.5707C8.96834 14.5317 9.03166 14.5317 9.07071 14.5707L9.32929 14.8293C9.39229 14.8923 9.34767 15 9.25858 15H8.74142C8.65233 15 8.60771 14.8923 8.67071 14.8293Z" fill="#F06292"/>
<path d="M4 7.34857C4 11.3184 7.705 14.48 8.94 14.48C10.175 14.48 13.88 11.3184 13.88 7.34857C13.88 3.37874 11.41 2 8.94 2C6.47 2 4 3.248 4 7.34857Z" fill="#F06292"/>
<path d="M9.80658 8.68582C9.80658 9.3559 9.26337 9.89911 8.59329 9.89911C7.92321 9.89911 7.38 9.3559 7.38 8.68582C7.38 8.01574 7.92321 7.47253 8.59329 7.47253C9.26337 7.47253 9.80658 8.01574 9.80658 8.68582Z" fill="white"/>
<path fill-rule="evenodd" clip-rule="evenodd" d="M9.80655 6.63417L10.1419 6.80184C10.4416 6.95167 10.806 6.83021 10.9558 6.53054C11.1056 6.23087 10.9842 5.86647 10.6845 5.71664L9.64679 5.19779C9.16276 4.95577 8.59326 5.30775 8.59326 5.84891V8.68582C8.59326 9.02086 8.86487 9.29246 9.19991 9.29246C9.53495 9.29246 9.80655 9.02086 9.80655 8.68582V6.63417Z" fill="white"/>
<path d="M8.57207 14.8327L8.86602 14.5094C8.9057 14.4658 8.97433 14.4658 9.01401 14.5094L9.30795 14.8327C9.36635 14.897 9.32077 15 9.23396 15H8.64607C8.55925 15 8.51368 14.897 8.57207 14.8327Z" fill="#F06292"/>
<path d="M7.38 3.29999C4.77999 4.85999 5.04723 7.71999 5.04723 7.71999" stroke="white" stroke-width="0.4" stroke-linecap="round"/>
</svg>
