<svg width="164" height="25" viewBox="0 0 164 25" fill="none" xmlns="http://www.w3.org/2000/svg">
<path d="M0 10.2857C0 17.92 7.125 24 9.5 24C11.875 24 19 17.92 19 10.2857C19 2.65143 14.25 0 9.5 0C4.75 0 0 2.4 0 10.2857Z" fill="#F06292"/>
<path d="M11.1665 12.8574C11.1665 14.146 10.1219 15.1906 8.83325 15.1906C7.54463 15.1906 6.5 14.146 6.5 12.8574C6.5 11.5687 7.54463 10.5241 8.83325 10.5241C10.1219 10.5241 11.1665 11.5687 11.1665 12.8574Z" fill="white"/>
<path fill-rule="evenodd" clip-rule="evenodd" d="M11.1665 8.91187L11.8114 9.23431C12.3877 9.52246 13.0884 9.28887 13.3766 8.71258C13.6647 8.13629 13.4311 7.43554 12.8549 7.14739L10.8593 6.1496C9.92845 5.68419 8.83325 6.36106 8.83325 7.40176V12.8573C8.83325 13.5017 9.35557 14.024 9.99988 14.024C10.6442 14.024 11.1665 13.5017 11.1665 12.8573V8.91187Z" fill="white"/>
<path d="M8.80412 24.6655L9.35201 24.0628C9.43136 23.9755 9.56864 23.9755 9.64799 24.0628L10.1959 24.6655C10.3127 24.7939 10.2215 25 10.0479 25H8.95211C8.77848 25 8.68733 24.7939 8.80412 24.6655Z" fill="#F06292"/>
<path d="M25.3196 7.36364H27.8991L31.3537 15.7955H31.4901L34.9446 7.36364H37.5241V19H35.5014V11.0057H35.3935L32.1776 18.9659H30.6662L27.4503 10.9886H27.3423V19H25.3196V7.36364ZM45.2912 15.3295V10.2727H47.348V19H45.3537V17.4489H45.2628C45.0658 17.9375 44.742 18.3371 44.2912 18.6477C43.8442 18.9583 43.2931 19.1136 42.6378 19.1136C42.0658 19.1136 41.5601 18.9867 41.1207 18.733C40.6851 18.4754 40.3442 18.1023 40.098 17.6136C39.8518 17.1212 39.7287 16.5265 39.7287 15.8295V10.2727H41.7855V15.5114C41.7855 16.0644 41.937 16.5038 42.2401 16.8295C42.5431 17.1553 42.9408 17.3182 43.4332 17.3182C43.7363 17.3182 44.0298 17.2443 44.3139 17.0966C44.598 16.9489 44.831 16.7292 45.0128 16.4375C45.1984 16.142 45.2912 15.7727 45.2912 15.3295ZM56.3608 12.5795L54.4858 12.7841C54.4328 12.5947 54.34 12.4167 54.2074 12.25C54.0786 12.0833 53.9044 11.9489 53.6847 11.8466C53.465 11.7443 53.196 11.6932 52.8778 11.6932C52.4498 11.6932 52.09 11.786 51.7983 11.9716C51.5104 12.1572 51.3684 12.3977 51.3722 12.6932C51.3684 12.947 51.4612 13.1534 51.6506 13.3125C51.8438 13.4716 52.1619 13.6023 52.6051 13.7045L54.0938 14.0227C54.9195 14.2008 55.5331 14.483 55.9347 14.8693C56.34 15.2557 56.5445 15.7614 56.5483 16.3864C56.5445 16.9356 56.3835 17.4205 56.0653 17.8409C55.7509 18.2576 55.3134 18.5833 54.7528 18.8182C54.1922 19.053 53.5483 19.1705 52.821 19.1705C51.7528 19.1705 50.893 18.947 50.2415 18.5C49.59 18.0492 49.2017 17.4223 49.0767 16.6193L51.0824 16.4261C51.1733 16.8201 51.3665 17.1174 51.6619 17.3182C51.9574 17.5189 52.3419 17.6193 52.8153 17.6193C53.304 17.6193 53.696 17.5189 53.9915 17.3182C54.2907 17.1174 54.4403 16.8693 54.4403 16.5739C54.4403 16.3239 54.3438 16.1174 54.1506 15.9545C53.9612 15.7917 53.6657 15.6667 53.2642 15.5795L51.7756 15.267C50.9384 15.0928 50.3191 14.7992 49.9176 14.3864C49.5161 13.9697 49.3172 13.4432 49.321 12.8068C49.3172 12.2689 49.4631 11.803 49.7585 11.4091C50.0578 11.0114 50.4725 10.7045 51.0028 10.4886C51.5369 10.2689 52.1525 10.1591 52.8494 10.1591C53.8722 10.1591 54.6771 10.3769 55.2642 10.8125C55.8551 11.2481 56.2206 11.8371 56.3608 12.5795ZM58.2443 19V10.2727H60.3011V19H58.2443ZM59.2784 9.03409C58.9527 9.03409 58.6723 8.92614 58.4375 8.71023C58.2027 8.49053 58.0852 8.22727 58.0852 7.92045C58.0852 7.60985 58.2027 7.34659 58.4375 7.13068C58.6723 6.91098 58.9527 6.80114 59.2784 6.80114C59.608 6.80114 59.8883 6.91098 60.1193 7.13068C60.3542 7.34659 60.4716 7.60985 60.4716 7.92045C60.4716 8.22727 60.3542 8.49053 60.1193 8.71023C59.8883 8.92614 59.608 9.03409 59.2784 9.03409ZM66.223 19.1705C65.3518 19.1705 64.6037 18.9792 63.9787 18.5966C63.3575 18.214 62.8783 17.6856 62.5412 17.0114C62.2079 16.3333 62.0412 15.553 62.0412 14.6705C62.0412 13.7841 62.2116 13.0019 62.5526 12.3239C62.8935 11.642 63.3745 11.1117 63.9957 10.733C64.6207 10.3504 65.3594 10.1591 66.2116 10.1591C66.92 10.1591 67.5469 10.2898 68.0923 10.5511C68.6416 10.8087 69.0791 11.1742 69.4048 11.6477C69.7306 12.1174 69.9162 12.6667 69.9616 13.2955H67.9957C67.9162 12.875 67.7268 12.5246 67.4276 12.2443C67.1321 11.9602 66.7363 11.8182 66.2401 11.8182C65.8196 11.8182 65.4503 11.9318 65.1321 12.1591C64.8139 12.3826 64.5658 12.7045 64.3878 13.125C64.2135 13.5455 64.1264 14.0492 64.1264 14.6364C64.1264 15.2311 64.2135 15.7424 64.3878 16.1705C64.562 16.5947 64.8063 16.9223 65.1207 17.1534C65.4389 17.3807 65.812 17.4943 66.2401 17.4943C66.5431 17.4943 66.8139 17.4375 67.0526 17.3239C67.295 17.2064 67.4976 17.0379 67.6605 16.8182C67.8234 16.5985 67.9351 16.3314 67.9957 16.017H69.9616C69.9124 16.6345 69.7306 17.1818 69.4162 17.6591C69.1018 18.1326 68.6738 18.5038 68.1321 18.7727C67.5904 19.0379 66.9541 19.1705 66.223 19.1705ZM75.6193 19V10.2727H77.6761V19H75.6193ZM76.6534 9.03409C76.3277 9.03409 76.0473 8.92614 75.8125 8.71023C75.5777 8.49053 75.4602 8.22727 75.4602 7.92045C75.4602 7.60985 75.5777 7.34659 75.8125 7.13068C76.0473 6.91098 76.3277 6.80114 76.6534 6.80114C76.983 6.80114 77.2633 6.91098 77.4943 7.13068C77.7292 7.34659 77.8466 7.60985 77.8466 7.92045C77.8466 8.22727 77.7292 8.49053 77.4943 8.71023C77.2633 8.92614 76.983 9.03409 76.6534 9.03409ZM81.848 13.8864V19H79.7912V10.2727H81.7571V11.7557H81.8594C82.0601 11.267 82.3802 10.8788 82.8196 10.5909C83.2628 10.303 83.8101 10.1591 84.4616 10.1591C85.0639 10.1591 85.5885 10.2879 86.0355 10.5455C86.4863 10.803 86.8348 11.1761 87.081 11.6648C87.331 12.1534 87.4541 12.7462 87.4503 13.4432V19H85.3935V13.7614C85.3935 13.178 85.242 12.7216 84.9389 12.392C84.6397 12.0625 84.2249 11.8977 83.6946 11.8977C83.3348 11.8977 83.0147 11.9773 82.7344 12.1364C82.4579 12.2917 82.2401 12.517 82.081 12.8125C81.9257 13.108 81.848 13.4659 81.848 13.8864ZM95.0952 19H92.8452L96.9418 7.36364H99.544L103.646 19H101.396L98.2884 9.75H98.1974L95.0952 19ZM95.169 14.4375H101.305V16.1307H95.169V14.4375ZM109.148 19V7.36364H111.205V11.7159H111.29C111.396 11.5038 111.545 11.2784 111.739 11.0398C111.932 10.7973 112.193 10.5909 112.523 10.4205C112.852 10.2462 113.273 10.1591 113.784 10.1591C114.458 10.1591 115.066 10.3314 115.608 10.6761C116.153 11.017 116.585 11.5227 116.903 12.1932C117.225 12.8598 117.386 13.678 117.386 14.6477C117.386 15.6061 117.229 16.4205 116.915 17.0909C116.6 17.7614 116.172 18.2727 115.631 18.625C115.089 18.9773 114.475 19.1534 113.79 19.1534C113.29 19.1534 112.875 19.0701 112.545 18.9034C112.216 18.7367 111.951 18.536 111.75 18.3011C111.553 18.0625 111.4 17.8371 111.29 17.625H111.17V19H109.148ZM111.165 14.6364C111.165 15.2008 111.244 15.6951 111.403 16.1193C111.566 16.5436 111.799 16.875 112.102 17.1136C112.409 17.3485 112.78 17.4659 113.216 17.4659C113.67 17.4659 114.051 17.3447 114.358 17.1023C114.665 16.8561 114.896 16.5208 115.051 16.0966C115.21 15.6686 115.29 15.1818 115.29 14.6364C115.29 14.0947 115.212 13.6136 115.057 13.1932C114.902 12.7727 114.67 12.4432 114.364 12.2045C114.057 11.9659 113.674 11.8466 113.216 11.8466C112.777 11.8466 112.403 11.9621 112.097 12.1932C111.79 12.4242 111.557 12.7481 111.398 13.1648C111.242 13.5814 111.165 14.072 111.165 14.6364ZM121.646 19.1761C121.093 19.1761 120.595 19.0777 120.152 18.8807C119.713 18.6799 119.364 18.3845 119.107 17.9943C118.853 17.6042 118.726 17.1231 118.726 16.5511C118.726 16.0587 118.817 15.6515 118.999 15.3295C119.18 15.0076 119.429 14.75 119.743 14.5568C120.057 14.3636 120.411 14.2178 120.805 14.1193C121.203 14.017 121.614 13.9432 122.038 13.8977C122.55 13.8447 122.964 13.7973 123.283 13.7557C123.601 13.7102 123.832 13.642 123.976 13.5511C124.124 13.4564 124.197 13.3106 124.197 13.1136V13.0795C124.197 12.6515 124.071 12.3201 123.817 12.0852C123.563 11.8504 123.197 11.733 122.72 11.733C122.216 11.733 121.817 11.8428 121.521 12.0625C121.23 12.2822 121.033 12.5417 120.93 12.8409L119.01 12.5682C119.161 12.0379 119.411 11.5947 119.76 11.2386C120.108 10.8788 120.535 10.6098 121.038 10.4318C121.542 10.25 122.099 10.1591 122.709 10.1591C123.129 10.1591 123.548 10.2083 123.964 10.3068C124.381 10.4053 124.762 10.5682 125.107 10.7955C125.451 11.0189 125.728 11.3239 125.936 11.7102C126.148 12.0966 126.254 12.5795 126.254 13.1591V19H124.277V17.8011H124.209C124.084 18.0436 123.908 18.2708 123.68 18.483C123.457 18.6913 123.175 18.8598 122.834 18.9886C122.497 19.1136 122.101 19.1761 121.646 19.1761ZM122.18 17.6648C122.593 17.6648 122.951 17.5833 123.254 17.4205C123.557 17.2538 123.79 17.0341 123.953 16.7614C124.12 16.4886 124.203 16.1913 124.203 15.8693V14.8409C124.139 14.8939 124.029 14.9432 123.874 14.9886C123.722 15.0341 123.552 15.0739 123.362 15.108C123.173 15.142 122.985 15.1723 122.8 15.1989C122.614 15.2254 122.453 15.2481 122.317 15.267C122.01 15.3087 121.735 15.3769 121.493 15.4716C121.25 15.5663 121.059 15.6989 120.919 15.8693C120.779 16.036 120.709 16.2519 120.709 16.517C120.709 16.8958 120.847 17.1818 121.124 17.375C121.4 17.5682 121.752 17.6648 122.18 17.6648ZM130.379 7.36364V19H128.322V7.36364H130.379ZM134.551 7.36364V19H132.494V7.36364H134.551ZM140.473 19.1705C139.621 19.1705 138.882 18.983 138.257 18.608C137.632 18.233 137.147 17.7083 136.803 17.0341C136.462 16.3598 136.291 15.572 136.291 14.6705C136.291 13.7689 136.462 12.9792 136.803 12.3011C137.147 11.6231 137.632 11.0966 138.257 10.7216C138.882 10.3466 139.621 10.1591 140.473 10.1591C141.325 10.1591 142.064 10.3466 142.689 10.7216C143.314 11.0966 143.797 11.6231 144.138 12.3011C144.482 12.9792 144.655 13.7689 144.655 14.6705C144.655 15.572 144.482 16.3598 144.138 17.0341C143.797 17.7083 143.314 18.233 142.689 18.608C142.064 18.983 141.325 19.1705 140.473 19.1705ZM140.484 17.5227C140.946 17.5227 141.333 17.3958 141.643 17.142C141.954 16.8845 142.185 16.5398 142.337 16.108C142.492 15.6761 142.57 15.1951 142.57 14.6648C142.57 14.1307 142.492 13.6477 142.337 13.2159C142.185 12.7803 141.954 12.4337 141.643 12.1761C141.333 11.9186 140.946 11.7898 140.484 11.7898C140.011 11.7898 139.617 11.9186 139.303 12.1761C138.992 12.4337 138.759 12.7803 138.604 13.2159C138.452 13.6477 138.376 14.1307 138.376 14.6648C138.376 15.1951 138.452 15.6761 138.604 16.108C138.759 16.5398 138.992 16.8845 139.303 17.142C139.617 17.3958 140.011 17.5227 140.484 17.5227ZM150.207 19.1705C149.355 19.1705 148.616 18.983 147.991 18.608C147.366 18.233 146.882 17.7083 146.537 17.0341C146.196 16.3598 146.026 15.572 146.026 14.6705C146.026 13.7689 146.196 12.9792 146.537 12.3011C146.882 11.6231 147.366 11.0966 147.991 10.7216C148.616 10.3466 149.355 10.1591 150.207 10.1591C151.06 10.1591 151.798 10.3466 152.423 10.7216C153.048 11.0966 153.531 11.6231 153.872 12.3011C154.217 12.9792 154.389 13.7689 154.389 14.6705C154.389 15.572 154.217 16.3598 153.872 17.0341C153.531 17.7083 153.048 18.233 152.423 18.608C151.798 18.983 151.06 19.1705 150.207 19.1705ZM150.219 17.5227C150.681 17.5227 151.067 17.3958 151.378 17.142C151.688 16.8845 151.92 16.5398 152.071 16.108C152.226 15.6761 152.304 15.1951 152.304 14.6648C152.304 14.1307 152.226 13.6477 152.071 13.2159C151.92 12.7803 151.688 12.4337 151.378 12.1761C151.067 11.9186 150.681 11.7898 150.219 11.7898C149.745 11.7898 149.351 11.9186 149.037 12.1761C148.726 12.4337 148.493 12.7803 148.338 13.2159C148.187 13.6477 148.111 14.1307 148.111 14.6648C148.111 15.1951 148.187 15.6761 148.338 16.108C148.493 16.5398 148.726 16.8845 149.037 17.142C149.351 17.3958 149.745 17.5227 150.219 17.5227ZM158.192 13.8864V19H156.135V10.2727H158.101V11.7557H158.203C158.404 11.267 158.724 10.8788 159.163 10.5909C159.607 10.303 160.154 10.1591 160.805 10.1591C161.408 10.1591 161.932 10.2879 162.379 10.5455C162.83 10.803 163.179 11.1761 163.425 11.6648C163.675 12.1534 163.798 12.7462 163.794 13.4432V19H161.737V13.7614C161.737 13.178 161.586 12.7216 161.283 12.392C160.983 12.0625 160.569 11.8977 160.038 11.8977C159.679 11.8977 159.358 11.9773 159.078 12.1364C158.802 12.2917 158.584 12.517 158.425 12.8125C158.269 13.108 158.192 13.4659 158.192 13.8864Z" fill="#F06292"/>
</svg>
