<svg width="240" height="240" viewBox="0 0 24 24" fill="none" xmlns="http://www.w3.org/2000/svg">
<g clip-path="url(#clip0_33_295)">
<path d="M14.0811 14.9228L14.3841 14.6217C14.4231 14.583 14.486 14.583 14.525 14.6217L14.828 14.9228C14.8913 14.9857 14.8468 15.0937 14.7575 15.0937H14.1516C14.0624 15.0937 14.0178 14.9857 14.0811 14.9228Z" fill="#F06292"/>
<path d="M9 6.86899C9 11.2251 13.0909 14.6943 14.4545 14.6943C15.8182 14.6943 19.9091 11.2251 19.9091 6.86899C19.9091 2.51289 17.1818 1 14.4545 1C11.7273 1 9 2.36943 9 6.86899Z" fill="#F06292"/>
<path d="M15.1817 8.50054C15.1817 9.29885 14.5305 9.946 13.7272 9.946C12.9239 9.946 12.2727 9.29885 12.2727 8.50054C12.2727 7.70224 12.9239 7.05508 13.7272 7.05508C14.5305 7.05508 15.1817 7.70224 15.1817 8.50054Z" fill="white"/>
<path fill-rule="evenodd" clip-rule="evenodd" d="M15.1817 6.05629L15.5837 6.25605C15.943 6.43456 16.3798 6.28985 16.5594 5.93284C16.739 5.57582 16.5934 5.1417 16.2342 4.96319L14.9902 4.34506C14.4099 4.05673 13.7272 4.47606 13.7272 5.12077V8.50054C13.7272 8.89969 14.0528 9.22327 14.4545 9.22327C14.8561 9.22327 15.1817 8.89969 15.1817 8.50054V6.05629Z" fill="white"/>
<path d="M11 15.869C11 20.2251 15.0909 23.6943 16.4545 23.6943C17.8182 23.6943 21.9091 20.2251 21.9091 15.869C21.9091 11.5129 19.1818 10 16.4545 10C13.7273 10 11 11.3694 11 15.869Z" fill="#FFA726"/>
<path d="M17.4114 17.3364C17.4114 18.0717 16.8116 18.6677 16.0717 18.6677C15.3318 18.6677 14.7321 18.0717 14.7321 17.3364C14.7321 16.6011 15.3318 16.005 16.0717 16.005C16.8116 16.005 17.4114 16.6011 17.4114 17.3364Z" fill="white"/>
<path fill-rule="evenodd" clip-rule="evenodd" d="M17.4114 15.0851L17.7816 15.2691C18.1125 15.4335 18.5149 15.3002 18.6803 14.9714C18.8458 14.6425 18.7116 14.2427 18.3808 14.0783L17.235 13.5089C16.7005 13.2434 16.0717 13.6296 16.0717 14.2234V17.3364C16.0717 17.704 16.3716 18.002 16.7415 18.002C17.1115 18.002 17.4114 17.704 17.4114 17.3364V15.0851Z" fill="white"/>
<path d="M16.1868 23.9299L16.307 23.7986C16.3863 23.7119 16.5228 23.7119 16.6021 23.7986L16.7223 23.9299C16.8397 24.0582 16.7486 24.2649 16.5747 24.2649H16.3344C16.1605 24.2649 16.0694 24.0582 16.1868 23.9299Z" fill="#FFA726"/>
<path d="M2 12.869C2 17.2251 6.09091 20.6943 7.45454 20.6943C8.81818 20.6943 12.9091 17.2251 12.9091 12.869C12.9091 8.51289 10.1818 7 7.45454 7C4.72727 7 2 8.36943 2 12.869Z" fill="#00B2FF"/>
<path d="M8.41138 14.3363C8.41138 15.0716 7.81159 15.6677 7.07172 15.6677C6.33184 15.6677 5.73206 15.0716 5.73206 14.3363C5.73206 13.6011 6.33184 13.005 7.07172 13.005C7.81159 13.005 8.41138 13.6011 8.41138 14.3363Z" fill="white"/>
<path fill-rule="evenodd" clip-rule="evenodd" d="M8.41136 12.0851L8.78164 12.2691C9.11252 12.4335 9.51487 12.3002 9.68031 11.9714C9.84575 11.6425 9.71164 11.2427 9.38075 11.0783L8.23497 10.5089C7.70052 10.2434 7.0717 10.6296 7.0717 11.2234V14.3364C7.0717 14.704 7.37159 15.002 7.74153 15.002C8.11147 15.002 8.41136 14.704 8.41136 14.3364V12.0851Z" fill="white"/>
<path d="M7.18683 20.9299L7.30698 20.7986C7.38627 20.7119 7.52283 20.7119 7.60212 20.7986L7.72227 20.9299C7.83966 21.0582 7.74862 21.2649 7.5747 21.2649H7.3344C7.16048 21.2649 7.06944 21.0582 7.18683 20.9299Z" fill="#00B2FF"/>
</g>
<defs>
<clipPath id="clip0_33_295">
<rect width="24" height="24" fill="white"/>
</clipPath>
</defs>
</svg>
