<svg width="19" height="25" viewBox="0 0 19 25" fill="none" xmlns="http://www.w3.org/2000/svg">
<path d="M0 10.2857C0 17.92 7.125 24 9.5 24C11.875 24 19 17.92 19 10.2857C19 2.65143 14.25 0 9.5 0C4.75 0 0 2.4 0 10.2857Z" fill="#D9D9D9"/>
<path d="M11.1665 12.8574C11.1665 14.146 10.1219 15.1906 8.83325 15.1906C7.54463 15.1906 6.5 14.146 6.5 12.8574C6.5 11.5687 7.54463 10.5241 8.83325 10.5241C10.1219 10.5241 11.1665 11.5687 11.1665 12.8574Z" fill="white"/>
<path fill-rule="evenodd" clip-rule="evenodd" d="M11.1665 8.91187L11.8114 9.23431C12.3877 9.52246 13.0884 9.28887 13.3766 8.71258C13.6647 8.13629 13.4311 7.43554 12.8548 7.14739L10.8592 6.1496C9.92842 5.68419 8.83322 6.36106 8.83322 7.40176V12.8573C8.83322 13.5017 9.35554 14.024 9.99985 14.024C10.6442 14.024 11.1665 13.5017 11.1665 12.8573V8.91187Z" fill="white"/>
<path d="M8.80412 24.6655L9.35201 24.0628C9.43136 23.9755 9.56864 23.9755 9.64799 24.0628L10.1959 24.6655C10.3127 24.7939 10.2215 25 10.0479 25H8.95211C8.77848 25 8.68733 24.7939 8.80412 24.6655Z" fill="#D9D9D9"/>
<path d="M6.5 2.5C1.49999 5.5 2.0139 11 2.0139 11" stroke="white" stroke-linecap="round"/>
<path d="M6.5 2.5C1.49999 5.5 2.0139 11 2.0139 11" stroke="white" stroke-linecap="round"/>
</svg>
